P3
#MAX=255
50 50
9863
368 9 0    209 207 207    209 207 207    209 207 207    209 207 207    209 207 207    209 207 207    209 207 207    209 207 207    209 207 207    209 207 207    209 207 207    209 207 207    209 207 207    209 207 207    209 207 207    209 207 207    209 207 207    209 207 207    209 207 207    209 207 207    209 207 207    209 207 207    209 207 207    209 207 207    209 207 207    209 207 207    209 207 207    209 207 207    209 207 207    209 207 207    209 207 207    209 207 207    209 207 207    209 207 207    209 207 207    209 207 207    209 207 207    209 207 207    209 207 207    209 207 207    209 207 207    209 207 207    209 207 207    209 207 207    209 207 207    209 207 207    209 207 207    209 207 207    209 207 207    
0 0 0    209 207 207    209 207 207    209 207 207    209 207 207    209 207 207    209 207 207    209 207 207    209 207 207    209 207 207    209 207 207    209 207 207    209 207 207    209 207 207    209 207 207    209 207 207    209 207 207    209 207 207    209 207 207    209 207 207    209 207 207    209 207 207    209 207 207    209 207 207    209 207 207    209 207 207    209 207 207    209 207 207    209 207 207    209 207 207    209 207 207    209 207 207    209 207 207    209 207 207    209 207 207    209 207 207    209 207 207    209 207 207    209 207 207    209 207 207    209 207 207    209 207 207    209 207 207    209 207 207    209 207 207    209 207 207    209 207 207    209 207 207    209 207 207    209 207 207    
0 1 0    0 0 0    209 207 207    209 207 207    209 207 207    209 207 207    209 207 207    209 207 207    209 207 207    209 207 207    209 207 207    209 207 207    209 207 207    209 207 207    209 207 207    209 207 207    209 207 207    209 207 207    209 207 207    209 207 207    209 207 207    209 207 207    209 207 207    209 207 207    209 207 207    209 207 207    209 207 207    209 207 207    209 207 207    209 207 207    209 207 207    209 207 207    209 207 207    209 207 207    209 207 207    209 207 207    209 207 207    209 207 207    209 207 207    209 207 207    209 207 207    209 207 207    209 207 207    209 207 207    209 207 207    209 207 207    209 207 207    209 207 207    209 207 207    209 207 207    
0 0 0    0 57 0    0 0 0    209 207 207    209 207 207    209 207 207    209 207 207    209 207 207    209 207 207    209 207 207    209 207 207    209 207 207    209 207 207    209 207 207    209 207 207    209 207 207    209 207 207    209 207 207    209 207 207    209 207 207    209 207 207    209 207 207    209 207 207    209 207 207    209 207 207    209 207 207    209 207 207    209 207 207    209 207 207    209 207 207    209 207 207    209 207 207    209 207 207    209 207 207    209 207 207    209 207 207    209 207 207    209 207 207    209 207 207    209 207 207    209 207 207    209 207 207    209 207 207    209 207 207    209 207 207    209 207 207    209 207 207    209 207 207    209 207 207    0 276 0    
277 43 0    277 43 0    0 0 0    277 43 0    209 207 207    209 207 207    209 207 207    209 207 207    209 207 207    209 207 207    209 207 207    209 207 207    209 207 207    209 207 207    209 207 207    209 207 207    209 207 207    209 207 207    209 207 207    209 207 207    209 207 207    209 207 207    209 207 207    209 207 207    209 207 207    209 207 207    209 207 207    209 207 207    209 207 207    209 207 207    209 207 207    209 207 207    209 207 207    209 207 207    209 207 207    209 207 207    209 207 207    209 207 207    209 207 207    209 207 207    209 207 207    209 207 207    209 207 207    209 207 207    209 207 207    209 207 207    209 207 207    209 207 207    0 46 0    0 0 0    
0 0 0    0 63 0    0 0 0    277 43 0    277 43 0    277 43 0    209 207 207    209 207 207    209 207 207    209 207 207    209 207 207    209 207 207    209 207 207    209 207 207    209 207 207    209 207 207    209 207 207    209 207 207    209 207 207    209 207 207    209 207 207    209 207 207    209 207 207    209 207 207    209 207 207    209 207 207    209 207 207    209 207 207    209 207 207    209 207 207    209 207 207    209 207 207    209 207 207    209 207 207    209 207 207    209 207 207    209 207 207    209 207 207    209 207 207    209 207 207    209 207 207    209 207 207    209 207 207    209 207 207    209 207 207    209 207 207    0 276 0    0 268 0    0 276 0    0 57 0    
277 43 0    0 0 0    0 0 0    0 0 0    277 43 0    0 0 0    209 207 207    209 207 207    209 207 207    209 207 207    209 207 207    209 207 207    209 207 207    209 207 207    209 207 207    209 207 207    209 207 207    209 207 207    209 207 207    209 207 207    209 207 207    209 207 207    209 207 207    209 207 207    209 207 207    209 207 207    209 207 207    209 207 207    209 207 207    209 207 207    209 207 207    209 207 207    209 207 207    209 207 207    209 207 207    209 207 207    209 207 207    209 207 207    209 207 207    209 207 207    209 207 207    209 207 207    209 207 207    209 207 207    209 207 207    209 207 207    0 276 0    0 0 0    0 52 0    0 365 0    
0 0 0    277 43 0    0 0 0    277 43 0    0 0 0    277 43 0    307 48 0    209 207 207    209 207 207    209 207 207    209 207 207    209 207 207    209 207 207    209 207 207    209 207 207    209 207 207    209 207 207    209 207 207    209 207 207    209 207 207    209 207 207    209 207 207    209 207 207    209 207 207    209 207 207    209 207 207    209 207 207    209 207 207    209 207 207    209 207 207    209 207 207    209 207 207    209 207 207    209 207 207    209 207 207    209 207 207    209 207 207    209 207 207    209 207 207    209 207 207    209 207 207    209 207 207    209 207 207    209 207 207    209 207 207    0 276 0    0 0 0    0 57 0    0 0 0    0 276 0    
0 0 0    277 43 0    0 0 0    277 43 0    277 43 0    277 43 0    0 0 0    0 52 0    0 0 0    209 207 207    209 207 207    209 207 207    209 207 207    209 207 207    209 207 207    209 207 207    209 207 207    209 207 207    209 207 207    209 207 207    209 207 207    209 207 207    209 207 207    209 207 207    209 207 207    209 207 207    209 207 207    209 207 207    209 207 207    209 207 207    209 207 207    209 207 207    209 207 207    209 207 207    209 207 207    209 207 207    209 207 207    209 207 207    209 207 207    209 207 207    209 207 207    209 207 207    209 207 207    0 0 0    0 0 0    0 16 0    0 0 0    0 0 0    0 276 0    0 0 0    
277 43 0    0 0 0    277 43 0    0 57 0    277 43 0    0 14 0    0 0 0    0 0 0    0 12 0    0 0 0    0 0 0    209 207 207    209 207 207    255 253 253    255 253 253    255 253 253    0 0 0    209 207 207    255 253 253    255 253 253    255 253 253    209 207 207    255 253 253    255 253 253    209 207 207    0 0 0    209 207 207    209 207 207    255 253 253    0 0 0    0 0 0    0 0 0    209 207 207    209 207 207    0 0 0    209 207 207    0 0 0    255 253 253    209 207 207    209 207 207    209 207 207    209 207 207    0 335 0    0 0 0    0 276 0    0 0 0    0 276 0    0 276 0    0 0 0    0 276 0    
0 31 0    0 52 0    0 0 0    277 43 0    277 43 0    0 10 0    0 2 0    0 0 0    0 0 0    0 16 0    0 0 0    339 52 0    255 253 253    255 253 253    255 253 253    0 0 0    255 253 253    0 0 0    255 253 253    255 253 253    0 11 0    255 253 253    283 279 279    0 0 0    0 153 0    283 279 279    0 0 0    0 0 0    255 253 253    255 253 253    0 0 0    255 253 253    255 253 253    0 14 0    674 105 0    255 253 253    0 0 0    255 253 253    255 253 253    255 253 253    255 253 253    255 253 253    0 276 0    0 57 0    0 0 0    0 304 0    0 276 0    0 276 0    0 0 0    0 276 0    
0 52 0    0 0 0    0 0 0    0 0 0    0 0 0    277 43 0    277 43 0    277 43 0    277 43 0    0 0 0    0 0 0    0 0 0    0 13 0    0 0 0    0 0 0    312 307 307    0 0 0    0 304 0    255 253 253    0 0 0    255 253 253    255 253 253    255 253 253    0 0 0    283 279 279    255 253 253    255 253 253    0 304 0    0 0 0    0 0 0    0 973 0    255 253 253    283 279 279    339 52 0    0 0 0    255 253 253    0 0 0    255 253 253    255 253 253    0 0 0    0 139 0    0 0 0    0 0 0    0 0 0    0 276 0    0 0 0    0 0 0    0 101 0    0 0 0    0 276 0    
277 43 0    0 0 0    277 43 0    0 0 0    0 0 0    0 0 0    277 43 0    307 48 0    0 12 0    0 0 0    307 48 0    255 253 253    0 0 0    255 253 253    0 0 0    339 52 0    0 57 0    0 16 0    0 0 0    255 253 253    0 0 0    255 253 253    0 0 0    255 253 253    0 76 0    0 0 0    0 0 0    0 63 0    0 0 0    0 0 0    0 325 0    0 304 0    0 0 0    0 335 0    255 253 253    0 0 0    255 253 253    0 11 0    0 335 0    0 57 0    307 48 0    0 0 0    255 253 253    0 304 0    0 0 0    0 52 0    0 0 0    0 0 0    0 276 0    0 0 0    
0 0 0    0 13 0    0 0 0    0 0 0    0 0 0    0 0 0    0 0 0    277 43 0    307 48 0    255 253 253    255 253 253    255 253 253    0 0 0    0 0 0    0 0 0    255 253 253    0 0 0    0 0 0    0 0 0    0 0 0    255 253 253    0 0 0    0 304 0    0 12 0    0 0 0    0 0 0    283 279 279    0 0 0    255 253 253    255 253 253    283 279 279    0 0 0    0 0 0    0 0 0    255 253 253    375 58 0    0 0 0    0 0 0    255 253 253    0 0 0    0 0 0    255 253 253    0 0 0    0 0 0    0 276 0    0 276 0    0 0 0    0 335 0    0 276 0    0 0 0    
277 43 0    0 0 0    0 0 0    277 43 0    277 43 0    342 95 0    0 13 0    307 48 0    0 0 0    0 0 0    0 0 0    0 0 0    0 0 0    0 0 0    0 0 0    255 253 253    0 0 0    255 253 253    283 279 279    255 253 253    0 304 0    255 253 253    0 0 0    0 0 0    0 0 0    0 76 0    0 63 0    0 0 0    255 253 253    562 557 557    255 253 253    283 279 279    0 76 0    0 0 0    0 0 0    0 0 0    255 253 253    0 368 0    0 304 0    0 0 0    0 304 0    255 253 253    0 0 0    0 0 0    0 76 0    0 0 0    0 0 0    0 276 0    0 0 0    0 0 0    
277 43 0    0 0 0    277 43 0    277 43 0    0 0 0    0 0 0    307 48 0    0 0 0    339 52 0    0 0 0    255 253 253    0 14 0    0 0 0    0 0 0    0 0 0    307 48 0    436 8 0    0 57 0    255 253 253    255 253 253    0 0 0    255 253 253    307 48 0    0 0 0    549 113 0    255 253 253    255 253 253    0 0 0    0 0 0    255 253 253    255 253 253    0 0 0    255 253 253    0 0 0    0 0 0    255 253 253    0 0 0    0 0 0    0 101 0    0 0 0    255 253 253    0 0 0    255 253 253    0 0 0    0 276 0    0 0 0    0 57 0    0 0 0    0 276 0    0 276 0    
0 0 0    0 0 0    0 24 0    0 57 0    307 48 0    0 0 0    0 0 0    0 0 0    0 2 0    255 253 253    0 0 0    339 52 0    0 0 0    283 279 279    0 0 0    339 52 0    307 48 0    0 0 0    0 0 0    0 0 0    0 0 0    283 279 279    0 0 0    0 0 0    0 0 0    0 0 0    255 253 253    0 0 0    0 0 0    0 0 0    0 0 0    0 0 0    0 57 0    0 0 0    0 0 0    0 0 0    0 0 0    0 0 0    0 0 0    0 0 0    0 335 0    283 279 279    0 0 0    0 0 0    0 276 0    0 276 0    0 0 0    0 0 0    0 0 0    0 52 0    
0 0 0    0 0 0    0 0 0    0 0 0    329 39 0    277 43 0    0 0 0    0 0 0    0 0 0    0 0 0    0 0 0    0 304 0    255 253 253    0 0 0    0 0 0    0 69 0    0 335 0    0 0 0    0 3 0    255 253 253    0 0 0    0 0 0    0 0 0    255 253 253    0 304 0    255 253 253    0 0 0    0 0 0    0 0 0    0 0 0    255 253 253    0 0 0    0 0 0    255 253 253    255 253 253    255 253 253    255 253 253    0 304 0    0 0 0    0 0 0    0 0 0    0 0 0    0 0 0    0 0 0    0 13 0    0 0 0    0 76 0    0 0 0    0 0 0    0 0 0    
0 0 0    0 0 0    277 43 0    0 0 0    407 10 0    0 0 0    0 0 0    277 43 0    0 57 0    0 0 0    0 0 0    562 557 557    0 76 0    0 0 0    0 0 0    0 304 0    255 253 253    0 83 0    0 0 0    0 304 0    255 253 253    0 0 0    0 0 0    0 0 0    255 253 253    0 0 0    0 0 0    0 0 0    255 253 253    255 253 253    0 0 0    0 0 0    0 0 0    0 0 0    0 0 0    0 0 0    0 0 0    445 52 0    0 0 0    0 304 0    0 0 0    0 0 0    0 0 0    0 365 0    0 0 0    0 0 0    0 0 0    0 0 0    0 358 0    0 0 0    
307 48 0    0 0 0    0 0 0    0 0 0    277 43 0    407 10 0    0 0 0    0 0 0    297 35 0    0 0 0    255 253 253    0 0 0    0 0 0    0 0 0    0 0 0    0 0 0    0 0 0    307 48 0    0 0 0    0 0 0    274 205 304    0 0 0    0 0 0    307 48 0    0 0 0    0 0 0    307 48 0    0 304 0    255 253 253    255 253 253    255 253 253    0 0 0    0 63 0    0 0 0    0 0 0    0 335 0    0 0 0    0 100 0    255 253 253    0 0 0    0 0 0    0 0 0    0 736 0    0 0 0    0 276 0    0 69 0    0 276 0    0 276 0    0 0 0    0 52 0    
0 0 0    307 48 0    307 48 0    307 48 0    0 0 0    277 43 0    277 43 0    0 0 0    0 0 0    0 0 0    255 253 253    0 0 0    0 0 0    0 0 0    255 253 253    0 0 0    0 0 0    0 0 0    255 253 253    255 253 253    283 279 279    255 253 253    255 253 253    0 76 0    255 253 253    0 0 0    0 69 0    0 0 0    0 12 0    0 0 0    0 0 0    0 0 0    0 0 0    0 246 0    255 253 253    0 0 0    307 48 0    0 0 0    0 57 0    0 0 0    0 14 0    0 0 0    0 76 0    0 0 0    0 0 0    0 335 0    0 0 0    0 69 0    0 0 0    0 0 0    
0 0 0    0 0 0    0 0 0    0 0 0    0 0 0    0 0 0    0 0 0    0 0 0    407 10 0    0 0 0    0 335 0    0 0 0    0 0 0    0 0 0    255 253 253    0 0 0    0 0 0    255 253 253    255 253 253    0 0 0    0 0 0    283 279 279    0 57 0    0 0 0    0 0 0    255 253 253    463 127 0    0 57 0    0 0 0    255 253 253    0 0 0    0 0 0    0 14 0    0 0 0    0 402 0    255 253 253    255 253 253    0 304 0    0 0 0    0 0 0    0 0 0    255 253 253    0 0 0    0 0 0    0 276 0    0 0 0    0 276 0    0 0 0    0 276 0    0 276 0    
277 43 0    0 0 0    0 0 0    0 0 0    0 0 0    0 57 0    0 52 0    0 0 0    277 43 0    407 10 0    0 0 0    0 0 0    0 0 0    255 253 253    0 0 0    0 0 0    0 0 0    0 0 0    255 253 253    0 328 0    0 0 0    0 304 0    255 253 253    255 253 253    283 279 279    0 34 0    255 253 253    255 253 253    329 39 0    0 304 0    0 0 0    0 83 0    0 0 0    255 253 253    0 304 0    0 0 0    307 48 0    255 253 253    0 0 0    255 253 253    0 368 0    0 0 0    0 0 0    0 304 0    0 13 0    0 0 0    0 0 0    0 0 0    0 0 0    0 0 0    
0 0 0    0 0 0    0 0 0    0 0 0    307 48 0    0 0 0    0 0 0    0 0 0    0 0 0    0 0 0    0 63 0    307 48 0    255 253 253    0 0 0    0 153 0    255 253 253    0 0 0    0 0 0    255 253 253    0 0 0    0 0 0    0 0 0    0 0 0    307 48 0    255 253 253    436 8 0    0 0 0    0 69 0    0 0 0    0 0 0    255 253 253    255 253 253    0 76 0    0 0 0    0 0 0    255 253 253    0 0 0    255 253 253    0 0 0    255 253 253    0 0 0    0 304 0    0 0 0    0 69 0    0 0 0    0 0 0    0 0 0    0 883 0    0 276 0    0 0 0    
277 43 0    0 0 0    307 48 0    0 0 0    0 0 0    0 0 0    502 22 0    0 0 0    0 0 0    0 0 0    0 0 0    0 0 0    0 57 0    255 253 253    0 0 0    0 0 0    307 48 0    0 0 0    0 0 0    283 279 279    307 48 0    0 0 0    255 253 253    307 48 0    0 0 0    0 0 0    307 48 0    471 819 819    0 0 0    283 279 279    0 0 0    0 57 0    0 0 0    0 0 0    0 57 0    0 304 0    0 0 0    0 0 0    0 17 0    0 0 0    0 0 0    0 0 0    0 276 0    0 365 0    0 0 0    0 406 0    0 335 0    0 0 0    0 276 0    0 0 0    
0 0 0    0 52 0    277 43 0    277 43 0    0 0 0    0 0 0    307 48 0    0 0 0    0 0 0    0 0 0    483 9 0    0 0 0    0 0 0    307 48 0    0 0 0    307 48 0    0 0 0    0 34 0    0 0 0    0 0 0    0 0 0    255 253 253    0 0 0    307 48 0    307 48 0    283 279 279    0 0 0    255 253 253    0 304 0    0 1 0    0 0 0    0 0 0    0 0 0    0 0 0    0 0 0    0 0 0    0 0 0    0 0 0    0 304 0    0 0 0    0 0 0    0 0 0    0 57 0    0 0 0    0 0 0    0 0 0    0 276 0    0 69 0    0 0 0    0 0 0    
0 11 0    0 0 0    0 57 0    0 0 0    0 0 0    277 43 0    0 0 0    407 10 0    277 43 0    0 0 0    0 13 0    0 0 0    0 0 0    312 307 307    0 0 0    0 0 0    0 0 0    255 253 253    0 0 0    0 0 0    283 279 279    0 0 0    335 249 368    0 0 0    364 42 0    0 0 0    0 304 0    0 0 0    0 0 0    0 0 0    255 253 253    0 0 0    283 279 279    0 0 0    0 0 0    0 0 0    0 0 0    0 0 0    0 0 0    0 0 0    0 0 0    0 298 0    0 0 0    0 335 0    0 276 0    0 0 0    0 0 0    0 0 0    0 56 0    0 52 0    
0 0 0    0 0 0    0 52 0    0 69 0    0 69 0    0 0 0    307 48 0    0 0 0    0 0 0    0 0 0    0 0 0    0 0 0    0 0 0    0 3 0    0 92 0    0 0 0    0 0 0    0 0 0    0 0 0    0 0 0    283 279 279    0 57 0    307 48 0    0 0 0    0 0 0    0 0 0    0 0 0    0 83 0    0 0 0    0 0 0    0 304 0    0 0 0    0 0 0    0 0 0    255 253 253    0 0 0    0 487 0    0 0 0    0 0 0    0 0 0    0 0 0    0 0 0    0 3 0    0 0 0    0 276 0    0 57 0    0 0 0    0 276 0    0 52 0    0 0 0    
0 0 0    277 43 0    277 43 0    0 0 0    0 0 0    0 0 0    0 0 0    277 43 0    0 0 0    0 0 0    0 0 0    0 0 0    329 39 0    339 52 0    450 11 0    450 11 0    0 0 0    0 0 0    315 557 557    255 253 253    0 0 0    307 48 0    0 69 0    0 0 0    0 0 0    0 0 0    0 0 0    0 0 0    375 58 0    0 0 0    255 253 253    0 304 0    0 304 0    0 0 0    255 253 253    0 0 0    255 253 253    0 0 0    255 253 253    0 0 0    0 304 0    0 0 0    0 0 0    0 0 0    0 0 0    0 0 0    0 0 0    0 0 0    0 0 0    0 0 0    
0 0 0    277 43 0    0 0 0    0 0 0    0 0 0    297 35 0    0 0 0    277 43 0    277 43 0    418 115 0    0 0 0    0 0 0    0 0 0    0 0 0    0 0 0    0 304 0    307 48 0    0 0 0    0 0 0    0 0 0    335 249 368    0 287 0    0 0 0    0 0 0    255 253 253    0 0 0    0 335 0    0 0 0    0 0 0    0 304 0    0 0 0    0 0 0    0 0 0    307 48 0    0 0 0    0 0 0    0 0 0    0 0 0    0 0 0    0 63 0    0 0 0    0 0 0    0 0 0    0 0 0    0 0 0    0 276 0    0 0 0    0 0 0    0 0 0    0 0 0    
0 0 0    0 0 0    0 52 0    307 48 0    0 0 0    0 57 0    0 0 0    488 2 0    0 0 0    0 4 0    0 0 0    0 0 0    0 0 0    0 0 0    339 52 0    255 253 253    255 253 253    255 253 253    0 246 0    0 0 0    283 279 279    0 0 0    0 0 0    0 57 0    0 0 0    283 279 279    255 253 253    0 0 0    255 253 253    0 84 0    0 0 0    255 253 253    0 0 0    0 0 0    255 253 253    0 0 0    375 58 0    283 279 279    255 253 253    339 52 0    0 0 0    0 0 0    0 0 0    0 0 0    0 365 0    0 0 0    0 304 0    0 0 0    0 607 0    0 0 0    
0 0 0    0 0 0    0 0 0    0 69 0    277 43 0    277 43 0    0 0 0    0 57 0    0 0 0    0 0 0    0 2 0    0 0 0    339 52 0    0 0 0    0 0 0    0 0 0    0 0 0    0 0 0    0 76 0    255 253 253    0 0 0    307 48 0    283 279 279    0 27 0    0 0 0    0 0 0    0 335 0    339 52 0    0 0 0    0 335 0    0 0 0    0 0 0    0 434 0    0 0 0    0 0 0    0 0 0    0 335 0    0 0 0    255 253 253    0 1 0    0 0 0    0 0 0    0 52 0    0 0 0    0 276 0    0 0 0    0 52 0    0 6 0    0 0 0    0 69 0    
0 0 0    0 3 0    0 52 0    0 0 0    0 0 0    518 7 0    0 0 0    307 48 0    407 10 0    339 52 0    0 0 0    0 76 0    0 0 0    307 48 0    375 58 0    312 307 307    0 0 0    0 0 0    0 0 0    0 0 0    0 0 0    0 0 0    255 253 253    0 304 0    307 48 0    303 226 335    0 0 0    303 226 335    0 0 0    0 0 0    255 253 253    0 0 0    0 0 0    255 253 253    0 0 0    0 0 0    0 0 0    0 0 0    0 335 0    255 253 253    0 0 0    0 0 0    255 253 253    0 0 0    0 52 0    0 0 0    0 0 0    0 0 0    0 4 0    0 0 0    
307 48 0    0 0 0    0 11 0    277 43 0    0 0 0    0 52 0    0 0 0    0 0 0    0 0 0    0 0 0    0 0 0    0 72 0    0 0 0    255 253 253    0 0 0    0 0 0    0 0 0    0 0 0    0 63 0    0 0 0    307 48 0    0 63 0    0 0 0    307 48 0    0 0 0    0 0 0    0 304 0    0 0 0    0 0 0    0 0 0    283 279 279    255 253 253    255 253 253    0 0 0    0 63 0    375 58 0    0 0 0    0 0 0    0 0 0    0 0 0    0 0 0    0 0 0    0 0 0    0 0 0    0 19 0    0 276 0    0 304 0    0 52 0    0 0 0    0 0 0    
0 0 0    0 0 0    0 0 0    277 43 0    0 0 0    0 3 0    0 0 0    0 0 0    0 0 0    0 0 0    0 0 0    255 253 253    0 0 0    307 48 0    0 223 0    0 0 0    0 0 0    329 39 0    0 0 0    303 226 335    0 0 0    0 0 0    0 0 0    0 0 0    0 0 0    255 253 253    255 253 253    0 0 0    0 0 0    0 0 0    255 253 253    255 253 253    283 279 279    0 0 0    0 0 0    0 0 0    0 0 0    0 0 0    0 0 0    0 0 0    0 0 0    0 0 0    0 0 0    0 0 0    0 0 0    0 0 0    0 0 0    0 0 0    0 0 0    0 276 0    
0 0 0    0 0 0    277 43 0    0 63 0    0 0 0    277 43 0    0 57 0    0 0 0    307 48 0    0 10 0    255 253 253    0 0 0    0 304 0    0 0 0    248 186 276    0 8 0    274 205 304    248 186 276    248 186 276    0 51 0    0 0 0    0 271 0    283 279 279    0 0 0    0 0 0    255 253 253    0 0 0    0 0 0    0 0 0    0 0 0    0 0 0    0 0 0    255 253 253    0 0 0    255 253 253    0 0 0    0 0 0    0 151 0    0 0 0    0 0 0    0 0 0    0 0 0    0 0 0    0 276 0    0 0 0    0 0 0    0 0 0    0 0 0    0 442 0    0 0 0    
0 0 0    0 0 0    307 48 0    0 0 0    0 57 0    0 0 0    0 0 0    0 0 0    0 0 0    0 63 0    0 0 0    329 39 0    0 0 0    248 186 276    248 186 276    0 0 0    0 0 0    297 35 0    0 0 0    0 223 0    0 0 0    0 0 0    562 557 557    283 279 279    255 253 253    0 0 0    307 48 0    255 253 253    0 0 0    0 0 0    0 0 0    0 0 0    0 0 0    0 0 0    0 0 0    0 0 0    285 506 506    508 506 506    0 45 0    508 506 506    0 607 0    0 0 0    0 121 0    0 0 0    0 0 0    0 0 0    0 331 0    0 0 0    0 57 0    0 0 0    
0 0 0    0 11 0    277 43 0    307 48 0    0 0 0    368 9 0    0 2 0    0 0 0    0 0 0    0 0 0    0 0 0    248 186 276    0 0 0    0 0 0    0 0 0    0 0 0    0 9 0    248 186 276    0 0 0    0 0 0    248 186 276    0 0 0    0 69 0    0 0 0    0 0 0    0 0 0    0 0 0    255 253 253    0 0 0    0 0 0    0 0 0    0 139 0    0 0 0    0 0 0    285 506 506    0 0 0    0 0 0    285 506 506    285 506 506    0 0 0    0 126 0    0 368 0    0 0 0    0 0 0    0 304 0    0 0 0    0 0 0    0 304 0    0 223 0    0 0 0    
0 0 0    342 95 0    0 0 0    0 52 0    0 0 0    0 0 0    0 0 0    0 0 0    368 9 0    0 0 0    0 0 0    0 0 0    0 0 0    0 0 0    297 35 0    0 223 0    0 0 0    248 186 276    0 0 0    0 0 0    0 0 0    0 0 0    0 0 0    0 0 0    0 0 0    0 0 0    0 0 0    0 0 0    0 368 0    0 0 0    375 58 0    0 0 0    0 0 0    508 506 506    0 0 0    0 0 0    285 506 506    0 0 0    285 506 506    0 276 0    285 506 506    0 736 0    0 0 0    0 4 0    0 0 0    0 0 0    0 0 0    0 0 0    0 0 0    0 0 0    
0 0 0    0 0 0    0 0 0    0 0 0    0 0 0    667 1 0    277 43 0    0 0 0    0 0 0    0 0 0    395 7 0    297 35 0    0 0 0    0 0 0    0 0 0    0 246 0    0 42 0    0 298 0    0 0 0    0 0 0    329 39 0    0 0 0    339 52 0    0 0 0    0 304 0    0 0 0    0 0 0    283 279 279    0 0 0    0 0 0    0 0 0    0 0 0    368 9 0    0 0 0    277 43 0    0 126 0    0 0 0    285 506 506    508 506 506    0 0 0    0 0 0    0 304 0    0 62 0    0 607 0    0 0 0    0 276 0    0 304 0    0 0 0    0 19 0    0 365 0    
0 0 0    0 0 0    0 0 0    0 0 0    0 11 0    0 11 0    0 0 0    0 0 0    968 1 0    0 0 0    0 0 0    0 0 0    0 0 0    0 0 0    248 186 276    0 0 0    0 51 0    0 0 0    0 0 0    0 0 0    0 0 0    0 0 0    339 52 0    0 76 0    255 253 253    0 57 0    0 0 0    0 0 0    283 279 279    0 0 0    285 506 506    0 0 0    0 13 0    0 26 0    277 43 0    0 607 0    285 506 506    508 506 506    0 0 0    0 0 0    0 0 0    0 0 0    0 0 0    0 41 0    0 0 0    0 0 0    0 0 0    0 0 0    0 153 0    0 304 0    
277 43 0    0 0 0    0 13 0    0 0 0    395 7 0    0 0 0    0 0 0    0 0 0    0 0 0    283 279 279    0 42 0    0 0 0    0 0 0    0 0 0    248 186 276    0 0 0    0 0 0    0 0 0    0 51 0    297 35 0    274 205 304    283 279 279    364 42 0    0 0 0    0 0 0    255 253 253    0 0 0    0 0 0    0 0 0    312 307 307    0 0 0    0 126 0    0 0 0    0 0 0    0 0 0    342 95 0    0 0 0    0 0 0    285 506 506    0 0 0    0 0 0    0 669 0    0 76 0    0 137 0    0 0 0    0 276 0    0 0 0    0 0 0    0 0 0    0 0 0    
0 0 0    277 43 0    0 0 0    0 10 0    0 0 0    0 0 0    0 2 0    0 0 0    0 0 0    0 0 0    0 0 0    248 186 276    0 46 0    0 223 0    0 0 0    248 186 276    0 0 0    0 0 0    0 394 0    297 35 0    0 0 0    0 0 0    0 304 0    0 0 0    0 0 0    283 279 279    0 0 0    0 0 0    0 0 0    0 0 0    0 0 0    0 0 0    285 506 506    0 0 0    0 669 0    0 0 0    0 26 0    0 669 0    0 126 0    0 0 0    508 506 506    0 0 0    0 0 0    0 276 0    0 276 0    0 0 0    0 0 0    0 0 0    0 0 0    0 0 0    
0 0 0    0 4 0    0 12 0    0 0 0    0 11 0    307 48 0    407 10 0    0 0 0    0 0 0    0 0 0    0 0 0    0 0 0    329 39 0    0 9 0    0 0 0    0 0 0    274 205 304    0 0 0    0 0 0    0 0 0    0 0 0    0 0 0    0 0 0    255 253 253    0 9863 0    255 253 253    0 0 0    0 0 0    307 48 0    0 0 0    312 307 307    315 557 557    255 253 253    0 11 0    0 22 0    255 253 253    0 0 0    0 0 0    0 55 0    0 0 0    285 506 506    0 0 0    0 276 0    0 0 0    0 0 0    0 0 0    0 0 0    0 276 0    0 0 0    0 0 0    
432 38 0    407 10 0    0 0 0    307 48 0    0 0 0    0 0 0    0 0 0    0 0 0    255 253 253    0 335 0    0 0 0    303 226 335    0 0 0    274 205 304    0 0 0    248 186 276    0 0 0    325 183 402    0 0 0    0 0 0    0 0 0    0 0 0    0 0 0    0 0 0    0 12 0    307 48 0    0 0 0    0 304 0    255 253 253    283 279 279    0 0 0    0 0 0    378 105 0    0 0 0    0 0 0    389 1226 1226    255 253 253    255 253 253    0 607 0    0 0 0    255 253 253    0 0 0    0 304 0    0 2799 0    0 0 0    0 0 0    0 0 0    0 0 0    0 0 0    0 0 0    
0 0 0    0 0 0    0 0 0    0 0 0    307 48 0    436 8 0    0 0 0    0 0 0    0 0 0    0 0 0    0 0 0    0 63 0    0 0 0    0 0 0    0 0 0    274 205 304    0 0 0    0 0 0    0 0 0    0 0 0    255 253 253    0 325 0    0 0 0    0 335 0    0 0 0    0 0 0    255 253 253    0 0 0    0 57 0    0 23 0    0 313 0    0 63 0    0 0 0    0 0 0    0 0 0    307 48 0    0 0 0    255 253 253    0 0 0    0 0 0    0 0 0    315 557 557    0 0 0    0 0 0    0 0 0    0 402 0    0 0 0    0 0 0    0 0 0    0 0 0    
407 10 0    0 0 0    0 0 0    307 48 0    329 39 0    255 253 253    0 0 0    0 0 0    0 0 0    0 0 0    0 0 0    0 0 0    0 0 0    0 0 0    0 0 0    0 0 0    0 0 0    0 0 0    0 13 0    0 715 0    255 253 253    255 253 253    0 304 0    0 0 0    0 811 0    0 0 0    0 0 0    0 0 0    255 253 253    307 48 0    0 0 0    307 48 0    0 0 0    255 253 253    255 253 253    0 0 0    0 0 0    0 0 0    0 0 0    0 0 0    0 0 0    0 0 0    0 0 0    0 0 0    0 0 0    375 58 0    0 0 0    0 0 0    0 0 0    0 276 0    
0 0 0    277 43 0    368 9 0    0 0 0    255 253 253    0 0 0    0 0 0    0 0 0    0 0 0    0 0 0    0 0 0    0 0 0    0 0 0    307 48 0    0 0 0    307 48 0    255 253 253    360 201 442    0 0 0    255 253 253    329 39 0    0 0 0    0 0 0    303 226 335    0 0 0    274 205 304    0 0 0    339 52 0    0 0 0    0 0 0    0 0 0    0 0 0    349 613 613    0 0 0    0 0 0    0 0 0    255 253 253    0 0 0    0 0 0    0 135 0    0 0 0    0 0 0    0 335 0    0 0 0    0 0 0    0 100 0    255 253 253    0 0 0    0 0 0    0 0 0    
307 48 0    329 39 0    364 42 0    0 0 0    255 253 253    0 0 0    0 0 0    255 253 253    0 12 0    0 0 0    0 0 0    0 0 0    0 0 0    0 83 0    0 0 0    303 226 335    0 57 0    255 253 253    0 0 0    307 48 0    0 0 0    0 74 0    0 304 0    402 47 0    0 0 0    255 253 253    255 253 253    0 0 0    0 0 0    0 0 0    0 69 0    0 0 0    0 0 0    0 0 0    0 0 0    0 0 0    0 0 0    0 0 0    0 0 0    0 0 0    0 335 0    0 0 0    0 0 0    0 0 0    0 442 0    255 253 253    339 52 0    0 973 0    0 0 0    0 0 0    
0 0 0    0 0 0    0 0 0    0 0 0    0 0 0    339 52 0    255 253 253    0 63 0    0 2 0    0 0 0    0 12 0    0 0 0    339 52 0    0 0 0    0 0 0    255 253 253    0 0 0    0 0 0    255 253 253    255 253 253    0 69 0    0 0 0    283 279 279    307 48 0    0 0 0    0 0 0    255 253 253    0 0 0    0 0 0    349 613 613    349 613 613    349 613 613    0 0 0    0 0 0    0 0 0    0 0 0    0 0 0    0 0 0    0 0 0    283 279 279    0 100 0    0 0 0    0 0 0    0 0 0    0 0 0    0 0 0    255 253 253    0 0 0    255 253 253    0 2118 0    
