P3
#MAX=255
5 5
5615
3330 514 618    3204 485 586    1255 377 410    817 817 817    717 243 153    
1442 202 248    1674 1674 1674    577 138 154    1056 1056 1056    764 1396 764    
3684 516 634    1586 2912 1586    2290 358 430    541 95 112    784 1456 784    
2255 316 388    1050 1925 1050    938 1714 938    1584 242 292    1360 366 240    
843 134 160    3750 3750 3750    322 69 78    5615 5615 5615    5005 5005 5005    
